<svg width="323" height="323" viewBox="0 0 323 323" fill="none" xmlns="http://www.w3.org/2000/svg">
<g clip-path="url(#clip0)">
<path d="M161.4 322.8C250.539 322.8 322.8 250.539 322.8 161.4C322.8 72.2612 250.539 0 161.4 0C72.2612 0 0 72.2612 0 161.4C0 250.539 72.2612 322.8 161.4 322.8Z" fill="white"/>
<path d="M168.9 105.5C168.5 83.6 151.2 65.3 128.9 64.2C105.6 62.9 85.6001 80.8 84.4001 104C83.6001 118.1 89.9001 131 100.2 139.2L163.8 200.4L168.8 108.5C168.9 107.5 168.9 106.5 168.9 105.5ZM152.8 107.7C152 122 139.7 133.1 125.3 132.3C110.9 131.5 99.9001 119.2 100.6 104.8C101.4 90.4 113.7 79.4 128.1 80.2C142.5 81.1 153.6 93.3 152.8 107.7Z" fill="#ED4C5C"/>
<path d="M168.9 108.6C169 107.6 169 106.5 169 105.5H169.2L168.9 108.6Z" fill="#ED4C5C"/>
<path d="M154.1 108.5L153.8 105.7H153.9C154 106.6 154 107.5 154.1 108.5Z" fill="#EF67CB"/>
<path d="M238.2 99.9C235.7 76.7 215 59.9 191.8 62.3C169.6 64.6 153.2 83.6 153.9 105.6C153.9 106.5 154 107.5 154.1 108.5C154.1 108.6 154.1 108.7 154.1 108.7C154.1 108.8 154.1 108.9 154.1 108.9L163.6 200.2L224.2 135.8C234 127.2 239.7 114 238.2 99.9ZM198.8 130.2C184.4 131.7 171.6 121.3 170.1 107C168.6 92.7 179 79.8 193.4 78.4C207.8 76.9 220.6 87.3 222.1 101.6C223.7 116 213.2 128.8 198.8 130.2Z" fill="#EF67CB"/>
<path d="M154.1 108.5L153.8 105.7H153.9C154 106.6 154 107.5 154.1 108.5Z" fill="#EF67CB"/>
<path d="M238.2 99.9C235.7 76.7 215 59.9 191.8 62.3C169.6 64.6 153.2 83.6 153.9 105.6C153.9 106.5 154 107.5 154.1 108.5C154.1 108.6 154.1 108.7 154.1 108.7C154.1 108.8 154.1 108.9 154.1 108.9L163.6 200.2L224.2 135.8C234 127.2 239.7 114 238.2 99.9ZM198.8 130.2C184.4 131.7 171.6 121.3 170.1 107C168.6 92.7 179 79.8 193.4 78.4C207.8 76.9 220.6 87.3 222.1 101.6C223.7 116 213.2 128.8 198.8 130.2Z" fill="#EF67CB"/>
<path d="M66.5645 248.561H59.3645V250.011C59.3645 253.311 60.2312 255.845 61.9645 257.611C63.7312 259.378 66.6479 260.261 70.7145 260.261C74.6145 260.261 77.6479 259.411 79.8145 257.711C82.0145 255.978 83.1145 253.228 83.1145 249.461C83.1145 248.361 83.0145 247.361 82.8145 246.461C82.6145 245.561 82.2479 244.745 81.7145 244.011C81.2145 243.245 80.5312 242.545 79.6645 241.911C78.7979 241.245 77.6812 240.611 76.3145 240.011L70.7645 237.611C69.2312 236.978 68.2312 236.295 67.7645 235.561C67.2979 234.795 67.0645 233.861 67.0645 232.761C67.0645 232.228 67.1145 231.711 67.2145 231.211C67.3479 230.711 67.5645 230.278 67.8645 229.911C68.1979 229.511 68.6312 229.195 69.1645 228.961C69.6979 228.728 70.3645 228.611 71.1645 228.611C72.5645 228.611 73.5645 229.078 74.1645 230.011C74.7645 230.911 75.0645 232.211 75.0645 233.911H81.9645V232.911C81.9645 231.211 81.6812 229.761 81.1145 228.561C80.5812 227.328 79.8145 226.328 78.8145 225.561C77.8479 224.761 76.6812 224.195 75.3145 223.861C73.9812 223.495 72.5145 223.311 70.9145 223.311C67.4812 223.311 64.7812 224.178 62.8145 225.911C60.8479 227.645 59.8645 230.278 59.8645 233.811C59.8645 235.278 60.0479 236.578 60.4145 237.711C60.7812 238.811 61.3479 239.795 62.1145 240.661C62.9145 241.495 63.8979 242.228 65.0645 242.861C66.2312 243.495 67.6145 244.078 69.2145 244.611C70.4145 245.011 71.4145 245.411 72.2145 245.811C73.0479 246.178 73.7145 246.595 74.2145 247.061C74.7145 247.528 75.0645 248.061 75.2645 248.661C75.4979 249.228 75.6145 249.911 75.6145 250.711C75.6145 252.211 75.1645 253.328 74.2645 254.061C73.3979 254.761 72.4145 255.111 71.3145 255.111C70.3812 255.111 69.5979 254.978 68.9645 254.711C68.3645 254.445 67.8812 254.078 67.5145 253.611C67.1479 253.145 66.8979 252.578 66.7645 251.911C66.6312 251.211 66.5645 250.445 66.5645 249.611V248.561ZM86.4923 224.011V259.711H93.3923V241.861C93.3923 238.895 94.6089 237.411 97.0423 237.411C98.0756 237.411 98.8256 237.695 99.2923 238.261C99.7589 238.795 99.9923 239.761 99.9923 241.161V259.711H106.892V239.761C106.892 237.061 106.292 235.111 105.092 233.911C103.926 232.711 102.242 232.111 100.042 232.111C97.0089 232.111 94.8256 233.261 93.4923 235.561H93.3923V224.011H86.4923ZM117.492 246.261C117.492 244.895 117.526 243.628 117.592 242.461C117.659 241.295 117.809 240.295 118.042 239.461C118.309 238.628 118.692 237.978 119.192 237.511C119.692 237.045 120.359 236.811 121.192 236.811C122.592 236.811 123.559 237.545 124.092 239.011C124.626 240.478 124.892 242.895 124.892 246.261C124.892 249.628 124.626 252.045 124.092 253.511C123.559 254.978 122.592 255.711 121.192 255.711C120.359 255.711 119.692 255.478 119.192 255.011C118.692 254.545 118.309 253.895 118.042 253.061C117.809 252.228 117.659 251.228 117.592 250.061C117.526 248.895 117.492 247.628 117.492 246.261ZM110.592 246.261C110.592 248.595 110.759 250.661 111.092 252.461C111.426 254.228 111.992 255.711 112.792 256.911C113.592 258.078 114.676 258.945 116.042 259.511C117.409 260.045 119.126 260.295 121.192 260.261C123.159 260.261 124.809 259.978 126.142 259.411C127.509 258.845 128.609 257.978 129.442 256.811C130.276 255.611 130.876 254.128 131.242 252.361C131.609 250.595 131.792 248.561 131.792 246.261C131.792 243.895 131.626 241.828 131.292 240.061C130.959 238.295 130.392 236.811 129.592 235.611C128.792 234.411 127.709 233.528 126.342 232.961C124.976 232.361 123.259 232.078 121.192 232.111C119.226 232.111 117.559 232.428 116.192 233.061C114.859 233.661 113.776 234.561 112.942 235.761C112.109 236.928 111.509 238.395 111.142 240.161C110.776 241.928 110.592 243.961 110.592 246.261ZM135.516 232.811V268.361H142.416V257.211H142.516C143.249 258.278 144.066 259.061 144.966 259.561C145.899 260.028 147.016 260.261 148.316 260.261C151.149 260.261 153.232 259.178 154.566 257.011C155.899 254.845 156.566 251.261 156.566 246.261C156.566 241.261 155.899 237.661 154.566 235.461C153.232 233.228 151.149 232.111 148.316 232.111C146.916 232.111 145.732 232.395 144.766 232.961C143.832 233.495 142.982 234.395 142.216 235.661H142.116V232.811H135.516ZM142.416 246.261C142.416 243.328 142.632 241.128 143.066 239.661C143.532 238.161 144.532 237.411 146.066 237.411C147.566 237.411 148.532 238.161 148.966 239.661C149.432 241.128 149.666 243.328 149.666 246.261C149.666 249.195 149.432 251.411 148.966 252.911C148.532 254.378 147.566 255.111 146.066 255.111C144.532 255.111 143.532 254.378 143.066 252.911C142.632 251.411 142.416 249.195 142.416 246.261Z" fill="#ED4C5C"/>
<path d="M160.716 259.711H180.666V253.811H167.916V224.011H160.716V259.711ZM189.66 246.261C189.66 244.895 189.694 243.628 189.76 242.461C189.827 241.295 189.977 240.295 190.21 239.461C190.477 238.628 190.86 237.978 191.36 237.511C191.86 237.045 192.527 236.811 193.36 236.811C194.76 236.811 195.727 237.545 196.26 239.011C196.794 240.478 197.06 242.895 197.06 246.261C197.06 249.628 196.794 252.045 196.26 253.511C195.727 254.978 194.76 255.711 193.36 255.711C192.527 255.711 191.86 255.478 191.36 255.011C190.86 254.545 190.477 253.895 190.21 253.061C189.977 252.228 189.827 251.228 189.76 250.061C189.694 248.895 189.66 247.628 189.66 246.261ZM182.76 246.261C182.76 248.595 182.927 250.661 183.26 252.461C183.594 254.228 184.16 255.711 184.96 256.911C185.76 258.078 186.844 258.945 188.21 259.511C189.577 260.045 191.294 260.295 193.36 260.261C195.327 260.261 196.977 259.978 198.31 259.411C199.677 258.845 200.777 257.978 201.61 256.811C202.444 255.611 203.044 254.128 203.41 252.361C203.777 250.595 203.96 248.561 203.96 246.261C203.96 243.895 203.794 241.828 203.46 240.061C203.127 238.295 202.56 236.811 201.76 235.611C200.96 234.411 199.877 233.528 198.51 232.961C197.144 232.361 195.427 232.078 193.36 232.111C191.394 232.111 189.727 232.428 188.36 233.061C187.027 233.661 185.944 234.561 185.11 235.761C184.277 236.928 183.677 238.395 183.31 240.161C182.944 241.928 182.76 243.961 182.76 246.261ZM220.634 242.511H227.234C227.234 239.311 226.417 236.778 224.784 234.911C223.184 233.045 220.784 232.111 217.584 232.111C215.984 232.111 214.517 232.328 213.184 232.761C211.85 233.195 210.7 233.961 209.734 235.061C208.767 236.128 208.017 237.578 207.484 239.411C206.95 241.211 206.684 243.495 206.684 246.261C206.684 248.961 206.9 251.228 207.334 253.061C207.767 254.861 208.4 256.311 209.234 257.411C210.1 258.478 211.167 259.228 212.434 259.661C213.734 260.061 215.25 260.261 216.984 260.261C220.65 260.261 223.267 259.345 224.834 257.511C226.434 255.645 227.234 252.945 227.234 249.411H220.634C220.634 251.611 220.367 253.211 219.834 254.211C219.3 255.211 218.45 255.711 217.284 255.711C216.517 255.711 215.884 255.545 215.384 255.211C214.917 254.845 214.55 254.278 214.284 253.511C214.017 252.745 213.834 251.778 213.734 250.611C213.634 249.411 213.584 247.978 213.584 246.311C213.584 244.745 213.634 243.395 213.734 242.261C213.834 241.095 214.017 240.145 214.284 239.411C214.55 238.645 214.95 238.078 215.484 237.711C216.017 237.311 216.7 237.111 217.534 237.111C218.2 237.111 218.734 237.278 219.134 237.611C219.534 237.911 219.834 238.328 220.034 238.861C220.267 239.361 220.417 239.928 220.484 240.561C220.584 241.195 220.634 241.845 220.634 242.511ZM243.378 246.261V251.561C243.378 252.295 243.245 252.928 242.978 253.461C242.712 253.995 242.362 254.428 241.928 254.761C241.528 255.095 241.078 255.345 240.578 255.511C240.078 255.645 239.595 255.711 239.128 255.711C238.195 255.711 237.528 255.345 237.128 254.611C236.728 253.878 236.528 252.995 236.528 251.961C236.528 250.761 236.828 249.811 237.428 249.111C238.028 248.411 239.028 247.911 240.428 247.611C240.862 247.511 241.345 247.361 241.878 247.161C242.412 246.928 242.912 246.628 243.378 246.261ZM230.778 241.061H236.978V240.311C236.978 239.245 237.245 238.395 237.778 237.761C238.312 237.128 239.112 236.811 240.178 236.811C241.345 236.811 242.162 237.111 242.628 237.711C243.128 238.278 243.378 239.078 243.378 240.111C243.378 241.011 243.178 241.695 242.778 242.161C242.378 242.628 241.662 242.995 240.628 243.261L236.728 244.311C235.528 244.645 234.495 245.028 233.628 245.461C232.795 245.895 232.095 246.445 231.528 247.111C230.995 247.745 230.595 248.528 230.328 249.461C230.062 250.361 229.928 251.445 229.928 252.711C229.928 253.611 230.045 254.528 230.278 255.461C230.512 256.361 230.878 257.178 231.378 257.911C231.878 258.645 232.545 259.228 233.378 259.661C234.212 260.061 235.228 260.261 236.428 260.261C238.095 260.261 239.445 260.061 240.478 259.661C241.545 259.228 242.478 258.311 243.278 256.911H243.378C243.478 257.378 243.578 257.861 243.678 258.361C243.812 258.828 243.995 259.278 244.228 259.711H250.828C250.495 258.911 250.262 258.161 250.128 257.461C250.028 256.761 249.978 255.778 249.978 254.511V240.361C249.978 239.161 249.845 238.061 249.578 237.061C249.345 236.028 248.878 235.145 248.178 234.411C247.478 233.678 246.495 233.111 245.228 232.711C243.962 232.311 242.295 232.111 240.228 232.111C238.928 232.111 237.695 232.261 236.528 232.561C235.395 232.828 234.395 233.295 233.528 233.961C232.695 234.595 232.028 235.445 231.528 236.511C231.028 237.545 230.778 238.845 230.778 240.411V241.061ZM255.15 224.011V259.711H262.05V224.011H255.15Z" fill="#EF67CB"/>
</g>
<defs>
<clipPath id="clip0">
<rect width="322.8" height="322.8" fill="white"/>
</clipPath>
</defs>
</svg>
