<svg width="52" height="52" viewBox="0 0 52 52" fill="none" xmlns="http://www.w3.org/2000/svg">
<circle cx="26" cy="26" r="26" fill="#C4C4C4"/>
<path d="M17.7877 10C18.6041 10.1376 19.2045 10.6217 19.716 11.2244C20.0535 11.622 20.3722 12.0404 20.655 12.4779C21.1984 13.3186 21.7294 14.1682 22.2282 15.0349C22.6084 15.6958 22.8657 16.4107 22.9264 17.1805C23.0029 18.1491 22.6669 18.967 21.9608 19.6223C21.336 20.2022 20.7037 20.7751 19.989 21.251C19.3455 21.6795 18.8981 22.2546 18.8133 23.0486C18.7466 23.6748 18.8947 24.2719 19.1182 24.8504C19.5457 25.9569 20.1941 26.9371 20.9111 27.8728C21.954 29.2333 23.0817 30.52 24.3571 31.6728C25.0846 32.3304 25.8455 32.9487 26.75 33.3511C27.116 33.5141 27.5109 33.6406 27.9058 33.7062C28.7754 33.8509 29.4643 33.4798 30.0719 32.8857C30.6677 32.3031 31.2734 31.7273 31.9083 31.1876C32.9069 30.3388 34.0346 30.2228 35.2384 30.708C35.946 30.9933 36.5805 31.4039 37.1584 31.8907C38.0299 32.625 38.8872 33.3765 39.7287 34.1444C40.172 34.5487 40.5395 35.0276 40.7746 35.5855C40.8792 35.8339 40.9265 36.1062 41 36.368C41 36.4426 41 36.5172 41 36.5918C40.9704 36.7298 40.9501 36.8704 40.91 37.005C40.7589 37.5115 40.4307 37.8975 40.0434 38.2417C39.629 38.6098 39.2063 38.9697 38.8002 39.3468C37.278 40.7581 35.4889 41.6088 33.4289 41.8971C33.1533 41.9355 32.8762 41.9661 32.5998 42C32.1997 42 31.7999 42 31.3998 42C31.3458 41.9892 31.2921 41.9717 31.2374 41.9687C29.8378 41.8881 28.5032 41.5349 27.2139 41.005C25.1791 40.1684 23.3824 38.9526 21.7099 37.5454C19.974 36.0845 18.4184 34.4476 16.9656 32.7119C15.391 30.8311 13.9734 28.8447 12.8664 26.651C11.9758 24.8839 11.3195 23.0434 11.0945 21.0678C11.054 20.7113 11.0311 20.3529 11 19.9952C11 19.7838 11 19.5727 11 19.3612C11.0364 18.9853 11.0619 18.6078 11.1106 18.2334C11.3994 16.0176 12.305 14.0913 13.9022 12.5126C14.4407 11.9804 15.0535 11.5232 15.6205 11.0185C16.1564 10.5423 16.7058 10.1007 17.4502 10C17.5627 10 17.6752 10 17.7877 10Z" fill="white"/>
</svg>
