<svg xmlns="http://www.w3.org/2000/svg" height="800" width="800" viewBox="0 0 180 180"><linearGradient gradientUnits="userSpaceOnUse" gradientTransform="scale(.90026 1.1108)" y2="11.39" y1="83.349" x2="83.672" x1="112.948" id="a"><stop stop-color="#ef2131" offset="0"/><stop stop-color="#fecf2c" offset="1"/></linearGradient><linearGradient gradientUnits="userSpaceOnUse" gradientTransform="scale(.95514 1.04697)" y2="141.159" y1="28.143" x2="11.106" x1="70.663" id="b"><stop stop-color="#fbc52c" offset="0"/><stop stop-color="#f87130" offset=".264"/><stop stop-color="#ef52e2" offset=".561"/><stop stop-color="#661eec" offset="1"/></linearGradient><linearGradient gradientUnits="userSpaceOnUse" gradientTransform="scale(.90026 1.1108)" y2="127.569" y1="57.327" x2="56.739" x1="28.748" id="c"><stop stop-color="#78f6d8" offset="0"/><stop stop-color="#77d1f6" offset=".266"/><stop stop-color="#70a4f3" offset=".554"/><stop stop-color="#661eec" offset="1"/></linearGradient><linearGradient gradientUnits="userSpaceOnUse" gradientTransform="scale(.95514 1.04697)" y2="7.542" y1="120.138" x2="121.656" x1="62.58" id="d"><stop stop-color="#536eed" offset="0"/><stop stop-color="#54c3ec" offset=".247"/><stop stop-color="#64d769" offset=".564"/><stop stop-color="#fecf2c" offset="1"/></linearGradient><g fill-rule="evenodd" fill="none"><path fill="url(#a)" d="M0 146.685c35.32 16.893 78.912 8.533 105.246-22.845C136.46 86.648 131.612 31.203 94.418 0L69.692 29.462c29.057 24.377 32.845 67.694 8.46 96.75C58.706 149.378 26.691 157.114 0 146.684" transform="translate(50.006 20.581)"/><path fill="url(#b)" d="M0 146.685c35.32 16.893 78.912 8.533 105.246-22.845a88.51 88.51 0 008.524-12.067c4.159-25.843-4.987-53.159-26.5-71.207a76.989 76.989 0 00-17.575-11.1c29.055 24.377 32.84 67.691 8.456 96.745C58.707 149.38 26.693 157.115 0 146.685" transform="translate(50.006 20.581)"/><path fill="url(#c)" d="M125.821 8.56C90.501-8.331 46.91.029 20.575 31.407c-31.214 37.192-26.366 92.637 10.828 123.84l24.727-29.462c-29.058-24.377-32.846-67.694-8.46-96.75C67.114 5.866 99.128-1.869 125.82 8.561"/><path fill="url(#d)" d="M125.821 8.56C90.501-8.331 46.91.029 20.575 31.407a88.492 88.492 0 00-8.524 12.067c-4.159 25.843 4.987 53.158 26.5 71.207a76.991 76.991 0 0017.575 11.1c-29.054-24.377-32.84-67.691-8.456-96.746C67.114 5.866 99.128-1.869 125.82 8.561"/></g></svg>