<svg width="52" height="52" viewBox="0 0 52 52" fill="none" xmlns="http://www.w3.org/2000/svg">
<path d="M26.0013 0C40.4055 0.0568352 52.0008 11.6086 52 26.0071C51.9992 40.4065 40.4005 52.0008 25.9979 52C11.597 51.9992 -0.000835712 40.4048 4.51667e-08 26.0046C0.000835803 11.6061 11.5978 0.0543277 26.0013 0ZM22.741 35.0339C25.7163 35.0339 28.6916 35.0347 31.6669 35.0339C32.48 35.0339 32.7709 34.743 32.7709 33.9331C32.7717 29.9714 32.7726 26.0104 32.7709 22.0487C32.7701 19.1518 30.6096 16.9812 27.7196 16.9795C21.8801 16.977 16.0407 16.9787 10.2013 16.9787C9.33541 16.9787 9.05042 17.262 9.04958 18.1221C9.04958 22.0554 9.04875 25.9896 9.04958 29.9229C9.05042 32.875 11.2025 35.0314 14.1477 35.0339C17.0127 35.0355 19.8768 35.0339 22.741 35.0339ZM42.3763 26.0063C42.3763 23.2539 42.3771 20.5025 42.3754 17.7501C42.3754 17.4693 42.3687 17.1617 42.077 17.0221C41.7904 16.8851 41.5463 17.0597 41.3157 17.2286C38.948 18.9579 36.5811 20.6888 34.2059 22.4081C33.9878 22.5661 33.9109 22.7274 33.9125 22.9915C33.9234 25.0066 33.9226 27.0226 33.9125 29.0378C33.9109 29.3002 33.9836 29.4649 34.2025 29.6237C36.5326 31.3103 38.8535 33.0104 41.1778 34.7046C41.4469 34.901 41.7336 35.1592 42.0812 34.9904C42.4414 34.8157 42.3746 34.4246 42.3746 34.0969C42.3788 31.3989 42.3771 28.7026 42.3763 26.0063Z" fill="#2C8CFF"/>
<path d="M22.7408 35.0339C19.8767 35.0339 17.0125 35.0356 14.1484 35.0339C11.2032 35.0322 9.05195 32.875 9.05028 29.9229C9.04861 25.9896 9.04945 22.0554 9.05028 18.1221C9.05028 17.2629 9.33611 16.9787 10.202 16.9787C16.0414 16.9787 21.8808 16.9762 27.7203 16.9795C30.6103 16.9812 32.7699 19.1518 32.7716 22.0487C32.7733 26.0105 32.7724 29.9714 32.7716 33.9331C32.7716 34.743 32.4808 35.0339 31.6676 35.0339C28.6914 35.0339 25.7161 35.0339 22.7408 35.0339Z" fill="white"/>
<path d="M42.3763 26.0062C42.3763 28.7025 42.378 31.3989 42.3747 34.096C42.3747 34.4245 42.4415 34.8157 42.0813 34.9895C41.7328 35.1584 41.447 34.9001 41.1779 34.7037C38.8536 33.0086 36.5327 31.3094 34.2026 29.6228C33.9837 29.464 33.911 29.2993 33.9126 29.0369C33.9227 27.0217 33.9227 25.0057 33.9126 22.9906C33.911 22.7265 33.9887 22.5652 34.206 22.4072C36.5812 20.6879 38.9481 18.957 41.3158 17.2277C41.5464 17.0589 41.7913 16.8842 42.0771 17.0212C42.3688 17.1608 42.3747 17.4684 42.3755 17.7492C42.3772 20.5016 42.3763 23.2539 42.3763 26.0062Z" fill="white"/>
</svg>
